<svg width="40" height="40" viewBox="0 0 40 40" fill="none" xmlns="http://www.w3.org/2000/svg">
<path d="M11.717 0.138423C9.58893 0.237781 8.13571 0.573855 6.8653 1.06787C5.55049 1.57495 4.43608 2.25541 3.32727 3.35666C2.21845 4.45791 1.53565 5.56153 1.02684 6.86466C0.534438 8.12464 0.200834 9.56394 0.106834 11.671C0.0128326 13.7781 -0.00796765 14.4554 0.00243245 19.8302C0.0128326 25.205 0.0368328 25.8788 0.140034 27.9902C0.241635 30.0957 0.580038 31.5335 1.07924 32.7911C1.59245 34.0922 2.27926 35.1946 3.39247 36.2923C4.50568 37.39 5.62009 38.0641 6.9401 38.5684C8.21212 39.0549 9.66693 39.3867 11.7958 39.4789C13.9246 39.5711 14.6098 39.5925 20.0394 39.5822C25.4691 39.5719 26.1527 39.5482 28.2859 39.448C30.4191 39.3479 31.8644 39.0106 33.1356 38.519C34.4504 38.0099 35.5652 37.3314 36.6736 36.2294C37.782 35.1273 38.4644 34.0229 38.9728 32.719C39.4656 31.4602 39.8004 30.0205 39.8928 27.9154C39.986 25.8028 40.008 25.1283 39.9976 19.7542C39.9872 14.3802 39.9628 13.7065 39.8616 11.5958C39.7604 9.48516 39.4216 8.0518 38.9228 6.7934C38.4088 5.49225 37.7228 4.39061 36.61 3.29214C35.4972 2.19366 34.3804 1.51874 33.0632 1.01681C31.7904 0.52952 30.3363 0.197404 28.2075 0.106359C26.0787 0.0153146 25.3935 -0.00804042 19.9618 0.0022516C14.5302 0.0125436 13.8502 0.0355028 11.717 0.138423ZM11.9506 35.9182C10.0005 35.8343 8.94172 35.5137 8.23612 35.2453C7.30171 34.889 6.6361 34.4584 5.93289 33.7692C5.22969 33.08 4.79768 32.419 4.43288 31.4962C4.15887 30.798 3.82887 29.7513 3.73767 27.8216C3.63847 25.7359 3.61767 25.1096 3.60607 19.8255C3.59447 14.5413 3.61487 13.9159 3.70727 11.8294C3.79047 9.9012 4.11647 8.85221 4.38728 8.15433C4.74728 7.22844 5.18088 6.57094 5.87889 5.87543C6.5769 5.17993 7.24291 4.75162 8.17612 4.39061C8.88092 4.11827 9.93853 3.79447 11.8878 3.70263C13.997 3.60367 14.629 3.58388 19.9678 3.5724C25.3067 3.56092 25.9403 3.58071 28.0503 3.67255C29.9987 3.75647 31.0591 4.07591 31.7636 4.34549C32.6984 4.70175 33.3636 5.12966 34.0664 5.8216C34.7692 6.51354 35.2024 7.17025 35.5672 8.09574C35.8428 8.79124 36.17 9.83747 36.262 11.7676C36.3624 13.8549 36.3852 14.4808 36.3948 19.7637C36.4044 25.0467 36.3856 25.6741 36.2932 27.7598C36.208 29.6896 35.8848 30.7378 35.6132 31.4369C35.2532 32.3612 34.8192 33.0203 34.1208 33.7154C33.4224 34.4105 32.7572 34.8388 31.8236 35.1998C31.1195 35.4717 30.0607 35.7963 28.1131 35.8882C26.0039 35.9863 25.3719 36.0069 20.031 36.0184C14.6902 36.0299 14.0602 36.0085 11.951 35.9182M28.2551 9.21401C28.2559 9.68379 28.3975 10.1428 28.6619 10.5329C28.9263 10.9231 29.3017 11.2269 29.7406 11.4059C30.1795 11.5849 30.6622 11.6311 31.1276 11.5387C31.593 11.4462 32.0203 11.2192 32.3553 10.8864C32.6904 10.5536 32.9182 10.13 33.0099 9.66903C33.1017 9.20811 33.0532 8.73061 32.8707 8.29694C32.6882 7.86326 32.3798 7.49289 31.9846 7.23266C31.5894 6.97243 31.1251 6.83403 30.6503 6.83497C30.014 6.83623 29.4041 7.08756 28.955 7.53369C28.5058 7.97983 28.2541 8.58424 28.2551 9.21401ZM9.73093 19.812C9.74213 25.4251 14.3486 29.9651 20.0194 29.9544C25.6903 29.9437 30.2811 25.3855 30.2703 19.7724C30.2595 14.1593 25.6519 9.61817 19.9802 9.62925C14.3086 9.64034 9.72013 14.1997 9.73093 19.812ZM13.3334 19.8049C13.3308 18.5 13.7192 17.2237 14.4496 16.1373C15.18 15.0509 16.2195 14.2032 17.4367 13.7015C18.6539 13.1997 19.9942 13.0665 21.2879 13.3185C22.5817 13.5705 23.7708 14.1966 24.7051 15.1174C25.6393 16.0383 26.2766 17.2126 26.5364 18.4919C26.7962 19.7712 26.6668 21.098 26.1646 22.3046C25.6625 23.5111 24.81 24.5432 23.7151 25.2703C22.6202 25.9974 21.332 26.3868 20.0134 26.3894C19.1379 26.3912 18.2706 26.2224 17.461 25.8924C16.6514 25.5625 15.9155 25.078 15.2951 24.4665C14.6748 23.8551 14.1823 23.1287 13.8457 22.3288C13.5091 21.529 13.335 20.6713 13.3334 19.8049Z" fill="white"/>
</svg>
